<svg width="24" height="24" viewBox="0 0 24 24" fill="none" xmlns="http://www.w3.org/2000/svg">
<path d="M4.5 20.5C4.2875 20.5 4.10942 20.4281 3.96575 20.2843C3.82192 20.1404 3.75 19.9623 3.75 19.7497C3.75 19.5371 3.82192 19.359 3.96575 19.2155C4.10942 19.0718 4.2875 19 4.5 19H5.75V4.404C5.75 4.14783 5.83667 3.93317 6.01 3.76C6.18317 3.58667 6.39783 3.5 6.654 3.5H13.2307C13.4869 3.5 13.7016 3.58667 13.8747 3.76C14.0481 3.93317 14.1348 4.14783 14.1348 4.404V4.5H17.346C17.6022 4.5 17.8168 4.58667 17.99 4.76C18.1633 4.93317 18.25 5.14783 18.25 5.404V19H19.5C19.7125 19 19.8906 19.0719 20.0343 19.2158C20.1781 19.3596 20.25 19.5378 20.25 19.7503C20.25 19.9629 20.1781 20.141 20.0343 20.2845C19.8906 20.4282 19.7125 20.5 19.5 20.5H17.6585C17.3977 20.5 17.1811 20.4133 17.0087 20.24C16.8362 20.0668 16.75 19.8522 16.75 19.596V6H14.1348V19.596C14.1348 19.8522 14.0481 20.0668 13.8747 20.24C13.7016 20.4133 13.4869 20.5 13.2307 20.5H4.5ZM12.1348 12C12.1348 11.7552 12.0485 11.5465 11.876 11.374C11.7035 11.2017 11.4948 11.1155 11.25 11.1155C11.0052 11.1155 10.7965 11.2017 10.624 11.374C10.4517 11.5465 10.3655 11.7552 10.3655 12C10.3655 12.2448 10.4517 12.4535 10.624 12.626C10.7965 12.7983 11.0052 12.8845 11.25 12.8845C11.4948 12.8845 11.7035 12.7983 11.876 12.626C12.0485 12.4535 12.1348 12.2448 12.1348 12Z" fill="#0A0A0B"/>
</svg>
